<svg width="35" height="32" viewBox="0 0 35 32" fill="none" xmlns="http://www.w3.org/2000/svg">
<rect width="35" height="32" fill="#1E1E1E"/>
<g clip-path="url(#clip0_0_1)">
<rect width="1920" height="5852" transform="translate(-943 -1201)" fill="white"/>
<rect x="-19.9422" y="-20" width="75.1149" height="72" rx="10" fill="#FFEFED"/>
<path d="M17.6153 1.06665C9.02438 1.06665 2.03591 7.76532 2.03591 16V27.7333C2.03591 29.4976 3.53375 30.9333 5.37435 30.9333H9.8256C10.1207 30.9333 10.4038 30.8209 10.6125 30.6209C10.8212 30.4209 10.9384 30.1495 10.9384 29.8667V19.2C10.9384 18.9171 10.8212 18.6458 10.6125 18.4457C10.4038 18.2457 10.1207 18.1333 9.8256 18.1333H5.37435C4.98264 18.1333 4.61096 18.2101 4.26153 18.3296V16C4.26153 8.94185 10.2518 3.19998 17.6153 3.19998C24.9788 3.19998 30.9691 8.94185 30.9691 16V18.3296C30.6127 18.2033 30.2362 18.1369 29.8562 18.1333H25.405C25.1099 18.1333 24.8268 18.2457 24.6181 18.4457C24.4094 18.6458 24.2922 18.9171 24.2922 19.2V29.8667C24.2922 30.1495 24.4094 30.4209 24.6181 30.6209C24.8268 30.8209 25.1099 30.9333 25.405 30.9333H29.8562C31.6968 30.9333 33.1947 29.4976 33.1947 27.7333V16C33.1947 7.76532 26.2062 1.06665 17.6153 1.06665ZM5.37435 20.2667H8.71279V28.8H5.37435C5.07921 28.8 4.79616 28.6876 4.58747 28.4876C4.37878 28.2875 4.26153 28.0162 4.26153 27.7333V21.3333C4.26153 21.0504 4.37878 20.7791 4.58747 20.5791C4.79616 20.379 5.07921 20.2667 5.37435 20.2667ZM30.9691 27.7333C30.9691 28.0162 30.8518 28.2875 30.6431 28.4876C30.4344 28.6876 30.1514 28.8 29.8562 28.8H26.5178V20.2667H29.8562C30.1514 20.2667 30.4344 20.379 30.6431 20.5791C30.8518 20.7791 30.9691 21.0504 30.9691 21.3333V27.7333Z" fill="#FF624C"/>
</g>
<defs>
<clipPath id="clip0_0_1">
<rect width="1920" height="5852" fill="white" transform="translate(-943 -1201)"/>
</clipPath>
</defs>
</svg>
