<svg width="37" height="30" viewBox="0 0 37 30" fill="none" xmlns="http://www.w3.org/2000/svg">
<path d="M27.6504 3.5973H30.3969C32.2134 3.5973 33.8641 4.2962 35.0599 5.42135C36.2555 6.54651 36.9982 8.10044 36.9982 9.80942V23.7877C36.9982 25.4972 36.2557 27.0506 35.06 28.1758C33.8644 29.3011 32.2134 30 30.3969 30H7.08522C5.26872 30 3.61798 29.3011 2.42236 28.1758C1.22658 27.0506 0.483917 25.4972 0.483917 23.7877V9.80942C0.483917 8.09997 1.22658 6.54635 2.42236 5.4212C3.61798 4.29588 5.26872 3.5973 7.08522 3.5973H9.83179C10.0913 2.80592 10.5984 2.10969 11.2222 1.54688C12.2827 0.589308 13.7385 0 14.8656 0H22.6163C23.7434 0 25.1994 0.589308 26.2598 1.54688C26.8833 2.10969 27.3904 2.80592 27.6503 3.5973H27.6504ZM18.741 9.22732C20.9622 9.22732 22.9741 10.075 24.4299 11.445C25.8859 12.8152 26.7867 14.7084 26.7867 16.7988C26.7867 18.8891 25.8859 20.7822 24.4299 22.1524C22.9738 23.5225 20.9625 24.3701 18.741 24.3701C16.5196 24.3701 14.5083 23.5225 13.0521 22.1524C11.5963 20.7821 10.6956 18.8892 10.6956 16.7988C10.6956 14.7082 11.5963 12.8154 13.0521 11.445C14.508 10.075 16.5199 9.22732 18.741 9.22732ZM22.6799 13.0921C21.6722 12.1438 20.2795 11.5573 18.741 11.5573C17.2027 11.5573 15.8099 12.1438 14.8022 13.0921C13.7948 14.0404 13.1713 15.3512 13.1713 16.7988C13.1713 18.2463 13.7948 19.5572 14.8022 20.5054C15.8099 21.4535 17.2027 22.0403 18.741 22.0403C20.2792 22.0403 21.6722 21.4535 22.6799 20.5054C23.6876 19.5572 24.3108 18.2464 24.3108 16.7988C24.3108 15.351 23.6876 14.0404 22.6799 13.0921ZM30.3969 5.9271H26.6008C25.9172 5.9271 25.363 5.40552 25.363 4.76228C25.363 4.18724 25.02 3.64684 24.5482 3.22121C23.9373 2.66952 23.168 2.32995 22.6164 2.32995H14.8658C14.3142 2.32995 13.5449 2.66952 12.934 3.22121C12.4623 3.647 12.1192 4.18724 12.1192 4.76228C12.1192 5.40552 11.565 5.9271 10.8815 5.9271H7.08539C5.95191 5.9271 4.92055 6.36434 4.17256 7.06825C3.42457 7.77231 2.95978 8.74289 2.95978 9.80957V23.7879C2.95978 24.8543 3.42457 25.8251 4.17256 26.5291C4.92071 27.233 5.95207 27.6704 7.08539 27.6704H30.397C31.5305 27.6704 32.5622 27.233 33.31 26.5291C34.0582 25.825 34.5226 24.8546 34.5226 23.7879V9.80957C34.5226 8.74321 34.058 7.77231 33.3098 7.06856C32.5617 6.3645 31.5303 5.9271 30.397 5.9271H30.3969Z" fill="#FF624C"/>
</svg>
